<mxfile host="app.diagrams.net" modified="2024-02-08T01:49:42.442Z" agent="Mozilla/5.0 (Macintosh; Intel Mac OS X 10.15; rv:122.0) Gecko/20100101 Firefox/122.0" etag="E0gvpXE6954e8DCax2rz" version="23.1.1" type="github">
  <diagram name="Page-1" id="2YBvvXClWsGukQMizWep">
    <mxGraphModel dx="2230" dy="1476" grid="1" gridSize="10" guides="1" tooltips="1" connect="1" arrows="1" fold="1" page="1" pageScale="1" pageWidth="850" pageHeight="1100" math="0" shadow="0">
      <root>
        <mxCell id="0" />
        <mxCell id="1" parent="0" />
        <mxCell id="_TSmqHYJ6uufq9S0CRwO-11" value="" style="edgeStyle=elbowEdgeStyle;curved=0;rounded=0;orthogonalLoop=1;jettySize=auto;html=1;elbow=vertical;fontSize=12;startSize=8;endSize=8;" edge="1" parent="1" source="aM9ryv3xv72pqoxQDRHE-1">
          <mxGeometry relative="1" as="geometry">
            <mxPoint x="89.66666666666674" y="149.99666666666673" as="sourcePoint" />
            <mxPoint x="270" y="149.99666666666673" as="targetPoint" />
          </mxGeometry>
        </mxCell>
        <mxCell id="_TSmqHYJ6uufq9S0CRwO-33" style="edgeStyle=elbowEdgeStyle;curved=0;rounded=0;orthogonalLoop=1;jettySize=auto;html=1;elbow=vertical;fontSize=12;startSize=8;endSize=8;" edge="1" parent="1">
          <mxGeometry relative="1" as="geometry">
            <mxPoint x="-30" y="599.9985714285715" as="sourcePoint" />
            <mxPoint x="-245.42857142857133" y="599.9985714285715" as="targetPoint" />
          </mxGeometry>
        </mxCell>
        <mxCell id="aM9ryv3xv72pqoxQDRHE-1" value="Card Reader" style="shape=umlLifeline;perimeter=lifelinePerimeter;whiteSpace=wrap;html=1;container=0;dropTarget=0;collapsible=0;recursiveResize=0;outlineConnect=0;portConstraint=eastwest;newEdgeStyle={&quot;edgeStyle&quot;:&quot;elbowEdgeStyle&quot;,&quot;elbow&quot;:&quot;vertical&quot;,&quot;curved&quot;:0,&quot;rounded&quot;:0};" parent="1" vertex="1">
          <mxGeometry x="-75" y="35" width="100" height="745" as="geometry" />
        </mxCell>
        <mxCell id="_TSmqHYJ6uufq9S0CRwO-16" value="" style="edgeStyle=elbowEdgeStyle;curved=0;rounded=0;orthogonalLoop=1;jettySize=auto;html=1;elbow=vertical;fontSize=12;startSize=8;endSize=8;" edge="1" parent="1" source="aM9ryv3xv72pqoxQDRHE-5" target="aM9ryv3xv72pqoxQDRHE-1">
          <mxGeometry relative="1" as="geometry">
            <Array as="points">
              <mxPoint x="150" y="250" />
              <mxPoint x="210" y="290" />
            </Array>
          </mxGeometry>
        </mxCell>
        <mxCell id="_TSmqHYJ6uufq9S0CRwO-38" style="edgeStyle=elbowEdgeStyle;curved=0;rounded=0;orthogonalLoop=1;jettySize=auto;html=1;elbow=vertical;fontSize=12;startSize=8;endSize=8;" edge="1" parent="1">
          <mxGeometry relative="1" as="geometry">
            <mxPoint x="266.22" y="749.56" as="sourcePoint" />
            <mxPoint x="-30.002222222222173" y="749.56" as="targetPoint" />
          </mxGeometry>
        </mxCell>
        <mxCell id="aM9ryv3xv72pqoxQDRHE-5" value="Bank Server" style="shape=umlLifeline;perimeter=lifelinePerimeter;whiteSpace=wrap;html=1;container=0;dropTarget=0;collapsible=0;recursiveResize=0;outlineConnect=0;portConstraint=eastwest;newEdgeStyle={&quot;edgeStyle&quot;:&quot;elbowEdgeStyle&quot;,&quot;elbow&quot;:&quot;vertical&quot;,&quot;curved&quot;:0,&quot;rounded&quot;:0};" parent="1" vertex="1">
          <mxGeometry x="220" y="40" width="100" height="730" as="geometry" />
        </mxCell>
        <mxCell id="_TSmqHYJ6uufq9S0CRwO-1" value="" style="html=1;jettySize=18;whiteSpace=wrap;fontSize=13;strokeColor=#333333;strokeOpacity=100;strokeWidth=0.8;rounded=1;arcSize=10;edgeStyle=orthogonalEdgeStyle;startArrow=none;endArrow=block;endFill=1;lucidId=lDU.dlW5j_J2;" edge="1" parent="1" source="_TSmqHYJ6uufq9S0CRwO-5">
          <mxGeometry width="100" height="100" relative="1" as="geometry">
            <Array as="points">
              <mxPoint x="-30" y="110" />
              <mxPoint x="-30" y="110" />
            </Array>
            <mxPoint x="-130" y="110" as="sourcePoint" />
            <mxPoint x="-30" y="110" as="targetPoint" />
          </mxGeometry>
        </mxCell>
        <mxCell id="_TSmqHYJ6uufq9S0CRwO-2" value="&lt;div&gt;Insert Credit Card &amp;amp; Select Prepayment&lt;/div&gt;" style="text;html=1;resizable=0;labelBackgroundColor=default;align=center;verticalAlign=middle;fontColor=#3a414a;fontSize=13.3;" vertex="1" parent="_TSmqHYJ6uufq9S0CRwO-1">
          <mxGeometry relative="1" as="geometry">
            <mxPoint y="10" as="offset" />
          </mxGeometry>
        </mxCell>
        <mxCell id="_TSmqHYJ6uufq9S0CRwO-29" style="edgeStyle=elbowEdgeStyle;curved=0;rounded=0;orthogonalLoop=1;jettySize=auto;html=1;elbow=vertical;fontSize=12;startSize=8;endSize=8;" edge="1" parent="1" source="_TSmqHYJ6uufq9S0CRwO-3" target="_TSmqHYJ6uufq9S0CRwO-5">
          <mxGeometry relative="1" as="geometry">
            <mxPoint x="-170" y="520" as="targetPoint" />
            <Array as="points">
              <mxPoint x="340" y="570" />
              <mxPoint x="110" y="530" />
            </Array>
          </mxGeometry>
        </mxCell>
        <mxCell id="_TSmqHYJ6uufq9S0CRwO-40" style="edgeStyle=elbowEdgeStyle;curved=0;rounded=0;orthogonalLoop=1;jettySize=auto;html=1;elbow=vertical;fontSize=12;startSize=8;endSize=8;" edge="1" parent="1">
          <mxGeometry relative="1" as="geometry">
            <mxPoint x="565" y="719.9955555555555" as="sourcePoint" />
            <mxPoint x="-246.22222222222217" y="719.9955555555555" as="targetPoint" />
          </mxGeometry>
        </mxCell>
        <mxCell id="_TSmqHYJ6uufq9S0CRwO-3" value="Pumping System" style="shape=umlLifeline;perimeter=lifelinePerimeter;whiteSpace=wrap;html=1;container=0;dropTarget=0;collapsible=0;recursiveResize=0;outlineConnect=0;portConstraint=eastwest;newEdgeStyle={&quot;edgeStyle&quot;:&quot;elbowEdgeStyle&quot;,&quot;elbow&quot;:&quot;vertical&quot;,&quot;curved&quot;:0,&quot;rounded&quot;:0};" vertex="1" parent="1">
          <mxGeometry x="520" y="40" width="100" height="720" as="geometry" />
        </mxCell>
        <mxCell id="_TSmqHYJ6uufq9S0CRwO-18" value="" style="edgeStyle=elbowEdgeStyle;curved=0;rounded=0;orthogonalLoop=1;jettySize=auto;html=1;elbow=vertical;fontSize=12;startSize=8;endSize=8;" edge="1" parent="1" source="_TSmqHYJ6uufq9S0CRwO-5" target="_TSmqHYJ6uufq9S0CRwO-3">
          <mxGeometry relative="1" as="geometry">
            <Array as="points">
              <mxPoint x="-50" y="290" />
            </Array>
          </mxGeometry>
        </mxCell>
        <mxCell id="_TSmqHYJ6uufq9S0CRwO-22" style="edgeStyle=elbowEdgeStyle;curved=0;rounded=0;orthogonalLoop=1;jettySize=auto;html=1;elbow=vertical;fontSize=12;startSize=8;endSize=8;" edge="1" parent="1">
          <mxGeometry relative="1" as="geometry">
            <mxPoint x="-234.99857142857132" y="380.0014285714287" as="sourcePoint" />
            <mxPoint x="575.43" y="380.0014285714287" as="targetPoint" />
          </mxGeometry>
        </mxCell>
        <mxCell id="_TSmqHYJ6uufq9S0CRwO-5" value="Actor" style="shape=umlLifeline;perimeter=lifelinePerimeter;whiteSpace=wrap;html=1;container=0;dropTarget=0;collapsible=0;recursiveResize=0;outlineConnect=0;portConstraint=eastwest;newEdgeStyle={&quot;edgeStyle&quot;:&quot;elbowEdgeStyle&quot;,&quot;elbow&quot;:&quot;vertical&quot;,&quot;curved&quot;:0,&quot;rounded&quot;:0};" vertex="1" parent="1">
          <mxGeometry x="-290" y="35" width="100" height="745" as="geometry" />
        </mxCell>
        <mxCell id="_TSmqHYJ6uufq9S0CRwO-14" value="" style="edgeStyle=none;curved=1;rounded=0;orthogonalLoop=1;jettySize=auto;html=1;fontSize=12;startSize=8;endSize=8;" edge="1" parent="1" source="_TSmqHYJ6uufq9S0CRwO-13" target="_TSmqHYJ6uufq9S0CRwO-3">
          <mxGeometry relative="1" as="geometry" />
        </mxCell>
        <mxCell id="_TSmqHYJ6uufq9S0CRwO-13" value="CC stolen? damaged? sufficient funds?" style="text;html=1;align=center;verticalAlign=middle;resizable=0;points=[];autosize=1;strokeColor=none;fillColor=none;fontSize=16;" vertex="1" parent="1">
          <mxGeometry x="-30" y="160" width="300" height="30" as="geometry" />
        </mxCell>
        <mxCell id="_TSmqHYJ6uufq9S0CRwO-15" value="condition fulfilled: start pumping" style="text;html=1;align=center;verticalAlign=middle;resizable=0;points=[];autosize=1;strokeColor=none;fillColor=none;fontSize=16;" vertex="1" parent="1">
          <mxGeometry x="300" y="170" width="250" height="30" as="geometry" />
        </mxCell>
        <mxCell id="_TSmqHYJ6uufq9S0CRwO-17" value="Conditions unfulfilled? Cancel Process" style="text;html=1;align=center;verticalAlign=middle;resizable=0;points=[];autosize=1;strokeColor=none;fillColor=none;fontSize=16;" vertex="1" parent="1">
          <mxGeometry x="-25" y="220" width="300" height="30" as="geometry" />
        </mxCell>
        <mxCell id="_TSmqHYJ6uufq9S0CRwO-19" value="&lt;div&gt;picks up nozzle&lt;/div&gt;" style="text;html=1;align=center;verticalAlign=middle;resizable=0;points=[];autosize=1;strokeColor=none;fillColor=none;fontSize=16;" vertex="1" parent="1">
          <mxGeometry x="-215" y="288" width="130" height="30" as="geometry" />
        </mxCell>
        <mxCell id="_TSmqHYJ6uufq9S0CRwO-20" style="edgeStyle=elbowEdgeStyle;curved=0;rounded=0;orthogonalLoop=1;jettySize=auto;html=1;elbow=vertical;fontSize=12;startSize=8;endSize=8;" edge="1" parent="1" source="_TSmqHYJ6uufq9S0CRwO-5" target="_TSmqHYJ6uufq9S0CRwO-3">
          <mxGeometry relative="1" as="geometry">
            <Array as="points">
              <mxPoint x="80" y="320" />
              <mxPoint x="180" y="340" />
            </Array>
          </mxGeometry>
        </mxCell>
        <mxCell id="_TSmqHYJ6uufq9S0CRwO-21" value="selects fuel grade" style="text;html=1;align=center;verticalAlign=middle;resizable=0;points=[];autosize=1;strokeColor=none;fillColor=none;fontSize=16;" vertex="1" parent="1">
          <mxGeometry x="-235" y="338" width="150" height="30" as="geometry" />
        </mxCell>
        <mxCell id="_TSmqHYJ6uufq9S0CRwO-23" value="&lt;div&gt;pull nozzle trigger&lt;/div&gt;&lt;div&gt;&lt;br&gt;&lt;/div&gt;" style="text;html=1;align=center;verticalAlign=middle;resizable=0;points=[];autosize=1;strokeColor=none;fillColor=none;fontSize=16;" vertex="1" parent="1">
          <mxGeometry x="-235" y="378" width="150" height="50" as="geometry" />
        </mxCell>
        <mxCell id="_TSmqHYJ6uufq9S0CRwO-27" value="" style="endArrow=classic;html=1;rounded=0;fontSize=12;startSize=8;endSize=8;curved=1;" edge="1" parent="1" target="_TSmqHYJ6uufq9S0CRwO-3">
          <mxGeometry width="50" height="50" relative="1" as="geometry">
            <mxPoint x="570" y="478" as="sourcePoint" />
            <mxPoint x="620" y="428" as="targetPoint" />
            <Array as="points">
              <mxPoint x="770" y="458" />
            </Array>
          </mxGeometry>
        </mxCell>
        <mxCell id="_TSmqHYJ6uufq9S0CRwO-28" value="UI display" style="text;html=1;align=center;verticalAlign=middle;resizable=0;points=[];autosize=1;strokeColor=none;fillColor=none;fontSize=16;" vertex="1" parent="1">
          <mxGeometry x="565" y="478" width="90" height="30" as="geometry" />
        </mxCell>
        <mxCell id="_TSmqHYJ6uufq9S0CRwO-30" value="user releases trigger" style="text;html=1;align=center;verticalAlign=middle;resizable=0;points=[];autosize=1;strokeColor=none;fillColor=none;fontSize=16;" vertex="1" parent="1">
          <mxGeometry x="-235" y="540" width="170" height="30" as="geometry" />
        </mxCell>
        <mxCell id="_TSmqHYJ6uufq9S0CRwO-31" value="" style="endArrow=classic;html=1;rounded=0;fontSize=12;startSize=8;endSize=8;curved=1;" edge="1" parent="1">
          <mxGeometry width="50" height="50" relative="1" as="geometry">
            <mxPoint x="566" y="540" as="sourcePoint" />
            <mxPoint x="565" y="520" as="targetPoint" />
            <Array as="points">
              <mxPoint x="766" y="520" />
            </Array>
          </mxGeometry>
        </mxCell>
        <mxCell id="_TSmqHYJ6uufq9S0CRwO-32" value="Prepaid amount reached" style="text;html=1;align=center;verticalAlign=middle;resizable=0;points=[];autosize=1;strokeColor=none;fillColor=none;fontSize=16;" vertex="1" parent="1">
          <mxGeometry x="365" y="510" width="200" height="30" as="geometry" />
        </mxCell>
        <mxCell id="_TSmqHYJ6uufq9S0CRwO-34" value="printed receipt" style="text;html=1;align=center;verticalAlign=middle;resizable=0;points=[];autosize=1;strokeColor=none;fillColor=none;fontSize=16;" vertex="1" parent="1">
          <mxGeometry x="-195" y="600" width="120" height="30" as="geometry" />
        </mxCell>
        <mxCell id="_TSmqHYJ6uufq9S0CRwO-35" value="" style="endArrow=classic;html=1;rounded=0;fontSize=12;startSize=8;endSize=8;curved=1;" edge="1" parent="1">
          <mxGeometry width="50" height="50" relative="1" as="geometry">
            <mxPoint x="566" y="660" as="sourcePoint" />
            <mxPoint x="565" y="640" as="targetPoint" />
            <Array as="points">
              <mxPoint x="766" y="640" />
            </Array>
          </mxGeometry>
        </mxCell>
        <mxCell id="_TSmqHYJ6uufq9S0CRwO-36" value="Opts" style="shape=umlFrame;whiteSpace=wrap;html=1;pointerEvents=0;fontSize=16;width=90;height=40;" vertex="1" parent="1">
          <mxGeometry x="-300" y="630" width="1000" height="200" as="geometry" />
        </mxCell>
        <mxCell id="_TSmqHYJ6uufq9S0CRwO-37" value="Fueling Problem" style="text;html=1;align=center;verticalAlign=middle;resizable=0;points=[];autosize=1;strokeColor=none;fillColor=none;fontSize=16;" vertex="1" parent="1">
          <mxGeometry x="530" y="680" width="140" height="30" as="geometry" />
        </mxCell>
        <mxCell id="_TSmqHYJ6uufq9S0CRwO-39" value="Credit Card Refund" style="text;html=1;align=center;verticalAlign=middle;resizable=0;points=[];autosize=1;strokeColor=none;fillColor=none;fontSize=16;" vertex="1" parent="1">
          <mxGeometry x="10" y="770" width="160" height="30" as="geometry" />
        </mxCell>
        <mxCell id="_TSmqHYJ6uufq9S0CRwO-41" value="Process halt" style="text;html=1;align=center;verticalAlign=middle;resizable=0;points=[];autosize=1;strokeColor=none;fillColor=none;fontSize=16;" vertex="1" parent="1">
          <mxGeometry x="90" y="700" width="110" height="30" as="geometry" />
        </mxCell>
      </root>
    </mxGraphModel>
  </diagram>
</mxfile>
